<svg width="479" height="92" viewBox="0 0 479 92" fill="none" xmlns="http://www.w3.org/2000/svg">
<g clip-path="url(#clip0)">
<path d="M1.12769 66.2871H7.98046C8.93464 66.2871 9.71534 66.3725 10.4093 66.6288C11.1032 66.8851 11.7104 67.2268 12.1442 67.6539C12.8381 68.3372 13.1851 69.1915 13.1851 70.2165V70.302C13.1851 70.8145 13.0983 71.2416 12.9249 71.6687C12.7514 72.0958 12.5779 72.4375 12.3177 72.6938C12.0574 72.9501 11.7972 73.2063 11.537 73.4626C11.2767 73.6334 10.9298 73.8043 10.5828 73.9751C11.0165 74.146 11.537 74.3168 11.9707 74.4877C12.4044 74.7439 12.7514 75.0002 13.0983 75.2565C13.4453 75.5981 13.6188 75.9398 13.879 76.3669C14.0525 76.7941 14.1393 77.3066 14.1393 77.8191V77.9045C14.1393 78.5879 13.9658 79.1859 13.7056 79.6984C13.4453 80.211 13.0116 80.7235 12.4911 81.0652C11.9707 81.4069 11.3635 81.7486 10.6695 81.9194C9.97557 82.0902 9.10813 82.1757 8.24069 82.1757H1.12769V66.2871ZM7.72022 73.3772C8.8479 73.3772 9.71534 73.1209 10.4093 72.6938C11.1032 72.1812 11.4502 71.4979 11.4502 70.5582V70.4728C11.4502 69.704 11.1032 69.0206 10.496 68.5935C9.88882 68.1664 9.02138 67.9101 7.80697 67.9101H2.94931V73.3772H7.72022V73.3772ZM8.32743 80.6381C9.54185 80.6381 10.496 80.3818 11.19 79.8693C11.8839 79.3567 12.2309 78.6733 12.2309 77.7337C12.2309 76.8795 11.8839 76.1961 11.19 75.6836C10.496 75.171 9.36836 75.0002 7.98046 75.0002H2.94931V80.6381H8.32743V80.6381Z" fill="white"/>
<path d="M38.0807 82.5174C37.0397 82.5174 36.1723 82.3465 35.3049 82.0903C34.5242 81.834 33.7435 81.3215 33.1363 80.8089C32.5291 80.2964 32.0953 79.5276 31.7484 78.6734C31.4014 77.8191 31.2279 76.7941 31.2279 75.6836V66.2871H33.0495V75.4273C33.0495 77.1358 33.4832 78.5025 34.3507 79.4422C35.2181 80.3818 36.4325 80.8089 37.9939 80.8089C39.4686 80.8089 40.683 80.3818 41.5504 79.5276C42.4179 78.6734 42.8516 77.3066 42.8516 75.5982V66.2871H44.6732V75.4273C44.6732 76.6232 44.4997 77.6483 44.1527 78.5025C43.8058 79.3568 43.3721 80.1256 42.7648 80.7235C42.1576 81.3215 41.4637 81.7486 40.5962 82.0903C40.0758 82.3465 39.1216 82.5174 38.0807 82.5174Z" fill="white"/>
<path d="M63.2363 66.2871H65.0579V82.1757H63.2363V66.2871Z" fill="white"/>
<path d="M83.6212 66.2871H85.4428V80.5526H94.551V82.1757H83.6212V66.2871Z" fill="white"/>
<path d="M111.813 66.2871H117.451C118.752 66.2871 119.88 66.458 120.921 66.8851C121.962 67.3122 122.916 67.8247 123.61 68.5935C124.391 69.2769 124.998 70.1311 125.345 71.0708C125.779 72.0104 125.952 73.0355 125.952 74.2314V74.3168C125.952 75.4273 125.779 76.4524 125.345 77.4774C124.911 78.4171 124.304 79.2713 123.61 80.0401C122.829 80.7235 121.962 81.3215 120.921 81.7486C119.88 82.1757 118.666 82.3465 117.451 82.3465H111.813V66.2871ZM117.451 80.5527C118.492 80.5527 119.36 80.3818 120.227 80.0401C121.095 79.6984 121.789 79.2713 122.309 78.7588C122.916 78.1608 123.35 77.5629 123.61 76.7941C123.957 76.0253 124.044 75.171 124.044 74.3168V74.2314C124.044 73.3772 123.87 72.5229 123.61 71.7541C123.263 70.9853 122.829 70.302 122.309 69.7894C121.702 69.1915 121.008 68.7644 120.227 68.4227C119.36 68.081 118.492 67.9101 117.451 67.9101H113.635V80.5527H117.451V80.5527Z" fill="white"/>
<path d="M143.908 66.2871H145.73V82.1757H143.908V66.2871Z" fill="white"/>
<path d="M164.293 66.2871H166.028L176.177 79.015V66.2871H177.999V82.1757H176.524L166.115 69.106V82.1757H164.293V66.2871Z" fill="white"/>
<path d="M203.935 82.5178C202.634 82.5178 201.506 82.3469 200.465 81.9198C199.424 81.4927 198.557 80.8947 197.863 80.1259C197.169 79.3571 196.562 78.5029 196.215 77.4778C195.868 76.4528 195.608 75.4277 195.608 74.3172V74.2318C195.608 73.1213 195.781 72.0962 196.215 71.0711C196.649 70.0461 197.169 69.1919 197.863 68.4231C198.557 67.6543 199.424 67.0563 200.379 66.6292C201.333 66.2021 202.46 65.9458 203.675 65.9458C204.369 65.9458 204.976 66.0312 205.496 66.1166C206.017 66.2021 206.624 66.3729 207.058 66.5438C207.578 66.7146 208.012 66.9709 208.446 67.2271C208.879 67.4834 209.313 67.8251 209.66 68.1668L208.446 69.5335C208.099 69.2773 207.839 69.021 207.492 68.7647C207.145 68.5085 206.798 68.3376 206.364 68.1668C205.93 67.9959 205.583 67.9105 205.063 67.8251C204.629 67.7397 204.109 67.6543 203.501 67.6543C202.634 67.6543 201.766 67.8251 201.073 68.1668C200.292 68.5085 199.685 69.021 199.164 69.619C198.644 70.2169 198.21 70.9003 197.863 71.6691C197.516 72.4379 197.429 73.2921 197.429 74.1464V74.2318C197.429 75.1714 197.603 76.0257 197.863 76.8799C198.123 77.6487 198.557 78.4175 199.164 79.0154C199.685 79.6134 200.379 80.0405 201.159 80.3822C201.94 80.7239 202.807 80.8947 203.848 80.8947C204.803 80.8947 205.67 80.7239 206.451 80.4676C207.231 80.1259 207.925 79.7842 208.532 79.3571V75.4277H203.588V73.8047H210.267V80.1259C209.487 80.8093 208.619 81.4073 207.492 81.8344C206.537 82.2615 205.323 82.5178 203.935 82.5178Z" fill="white"/>
<path d="M249.215 66.2871H255.287C256.155 66.2871 257.022 66.3725 257.803 66.6288C258.584 66.8851 259.191 67.2268 259.711 67.6539C260.232 68.081 260.666 68.5935 260.926 69.2769C261.186 69.8749 261.359 70.6437 261.359 71.4125V71.4979C261.359 72.3521 261.186 73.1209 260.839 73.8043C260.492 74.4877 260.058 75.0002 259.451 75.4273C258.844 75.8544 258.237 76.1961 257.456 76.4524C256.675 76.7087 255.895 76.7941 255.027 76.7941H251.124V82.432H249.302V66.2871H249.215ZM255.027 75.0002C255.721 75.0002 256.328 74.9148 256.849 74.7439C257.369 74.5731 257.89 74.3168 258.237 74.0606C258.67 73.7189 258.931 73.3772 259.104 72.9501C259.278 72.523 259.451 72.0104 259.451 71.4979V71.4125C259.451 70.302 259.017 69.4477 258.237 68.8498C257.456 68.2518 256.415 67.9956 255.114 67.9956H251.037V75.0002H255.027V75.0002Z" fill="white"/>
<path d="M278.535 66.2871H285.474C286.515 66.2871 287.383 66.458 288.163 66.7142C288.944 66.9705 289.551 67.3976 290.072 67.9101C290.505 68.3372 290.766 68.7644 291.026 69.2769C291.199 69.7894 291.373 70.3874 291.373 71.0708V71.1562C291.373 71.8396 291.286 72.4375 291.026 72.9501C290.852 73.4626 290.505 73.8897 290.072 74.3168C289.638 74.7439 289.204 75.0002 288.684 75.2565C288.163 75.5127 287.556 75.6836 286.949 75.769L291.893 82.2611H289.638L284.954 76.1107H284.867H280.27V82.2611H278.448V66.2871H278.535ZM285.301 74.4022C285.908 74.4022 286.428 74.3168 286.949 74.146C287.469 73.9751 287.903 73.8043 288.25 73.4626C288.597 73.2063 288.944 72.8646 289.117 72.4375C289.291 72.0104 289.464 71.5833 289.464 71.0708V70.9853C289.464 69.9603 289.117 69.1915 288.337 68.6789C287.643 68.1664 286.602 67.8247 285.301 67.8247H280.27V74.3168H285.301V74.4022Z" fill="white"/>
<path d="M316.615 82.5177C315.401 82.5177 314.273 82.2615 313.232 81.8344C312.192 81.4073 311.324 80.8093 310.63 80.0405C309.936 79.2717 309.329 78.4175 308.982 77.3924C308.548 76.3673 308.375 75.3423 308.375 74.2318V74.1463C308.375 73.0358 308.548 72.0108 308.982 70.9857C309.416 69.9606 309.936 69.1064 310.63 68.3376C311.324 67.5688 312.192 66.9708 313.232 66.5437C314.273 66.1166 315.401 65.8604 316.615 65.8604C317.83 65.8604 318.958 66.1166 319.998 66.5437C321.039 66.9708 321.907 67.5688 322.601 68.3376C323.295 69.1064 323.902 69.9606 324.249 70.9857C324.683 72.0108 324.856 73.0358 324.856 74.1463C324.856 74.1463 324.856 74.1463 324.856 74.2318C324.856 75.3423 324.683 76.3673 324.249 77.3924C323.815 78.4175 323.295 79.2717 322.601 80.0405C321.907 80.8093 321.039 81.4073 319.998 81.8344C318.958 82.2615 317.83 82.5177 316.615 82.5177ZM316.615 80.8093C317.57 80.8093 318.35 80.6384 319.131 80.2968C319.912 79.9551 320.606 79.528 321.126 78.93C321.647 78.332 322.08 77.6487 322.427 76.8799C322.774 76.1111 322.861 75.2568 322.861 74.3172V74.2318C322.861 73.2921 322.688 72.4379 322.427 71.6691C322.08 70.9003 321.647 70.2169 321.126 69.6189C320.519 69.021 319.912 68.5939 319.131 68.1668C318.35 67.8251 317.483 67.6542 316.615 67.6542C315.661 67.6542 314.881 67.8251 314.1 68.1668C313.319 68.5085 312.625 68.9356 312.105 69.5335C311.584 70.1315 311.151 70.8149 310.804 71.5837C310.457 72.3525 310.37 73.2067 310.37 74.1463V74.2318C310.37 75.1714 310.543 76.0256 310.804 76.7944C311.151 77.5632 311.584 78.2466 312.105 78.8446C312.712 79.4425 313.319 79.8696 314.1 80.2968C314.881 80.6384 315.661 80.8093 316.615 80.8093Z" fill="white"/>
<path d="M342.552 66.2871H348.19C349.491 66.2871 350.619 66.458 351.66 66.8851C352.701 67.3122 353.655 67.8247 354.349 68.5935C355.13 69.2769 355.737 70.1311 356.084 71.0708C356.518 72.0104 356.691 73.0355 356.691 74.2314V74.3168C356.691 75.4273 356.518 76.4524 356.084 77.4774C355.65 78.4171 355.043 79.2713 354.349 80.0401C353.568 80.7235 352.701 81.3215 351.66 81.7486C350.619 82.1757 349.405 82.3465 348.19 82.3465H342.552V66.2871ZM348.19 80.5527C349.231 80.5527 350.099 80.3818 350.966 80.0401C351.833 79.6984 352.527 79.2713 353.048 78.7588C353.655 78.1608 354.089 77.5629 354.349 76.7941C354.696 76.0253 354.783 75.171 354.783 74.3168V74.2314C354.783 73.3772 354.609 72.5229 354.349 71.7541C354.002 70.9853 353.568 70.302 353.048 69.7894C352.441 69.1915 351.747 68.7644 350.966 68.4227C350.099 68.081 349.231 67.9101 348.19 67.9101H344.373V80.5527H348.19V80.5527Z" fill="white"/>
<path d="M380.979 82.5174C379.938 82.5174 379.071 82.3465 378.204 82.0903C377.423 81.834 376.642 81.3215 376.035 80.8089C375.428 80.211 374.994 79.5276 374.647 78.6734C374.3 77.8191 374.127 76.7941 374.127 75.6836V66.2871H375.948V75.4273C375.948 77.1358 376.382 78.5025 377.249 79.4422C378.117 80.3818 379.331 80.8089 380.893 80.8089C382.367 80.8089 383.582 80.3818 384.449 79.5276C385.317 78.6734 385.75 77.3066 385.75 75.5982V66.2871H387.572V75.4273C387.572 76.6232 387.398 77.6483 387.051 78.5025C386.705 79.3568 386.271 80.1256 385.664 80.7235C385.056 81.3215 384.362 81.7486 383.495 82.0903C382.888 82.3465 382.02 82.5174 380.979 82.5174Z" fill="white"/>
<path d="M413.248 82.5178C412.12 82.5178 410.993 82.3469 410.039 81.9198C409.084 81.4927 408.217 80.8947 407.436 80.2114C406.742 79.4426 406.135 78.5883 405.701 77.5633C405.268 76.5382 405.094 75.5131 405.094 74.3172V74.2318C405.094 73.1213 405.268 72.0108 405.701 71.0711C406.135 70.0461 406.656 69.1919 407.436 68.4231C408.13 67.6543 408.998 67.0563 410.039 66.6292C411.08 66.2021 412.12 65.9458 413.335 65.9458C414.116 65.9458 414.723 66.0312 415.33 66.1166C415.937 66.2021 416.458 66.3729 416.978 66.6292C417.499 66.8855 417.932 67.1417 418.366 67.398C418.8 67.7397 419.233 68.0814 419.58 68.4231L418.366 69.7044C417.672 69.1064 416.891 68.5085 416.111 68.1668C415.33 67.7397 414.376 67.5688 413.248 67.5688C412.381 67.5688 411.513 67.7397 410.733 68.0814C409.952 68.4231 409.345 68.8502 408.737 69.4481C408.217 70.0461 407.697 70.7295 407.436 71.4983C407.089 72.2671 407.003 73.1213 407.003 74.0609V74.1464C407.003 75.086 407.176 75.9402 407.436 76.709C407.783 77.4778 408.217 78.1612 408.737 78.7592C409.258 79.3571 409.952 79.7842 410.733 80.1259C411.513 80.4676 412.294 80.6385 413.248 80.6385C414.376 80.6385 415.33 80.4676 416.111 80.0405C416.891 79.6134 417.672 79.1009 418.453 78.3321L419.667 79.528C419.233 79.9551 418.8 80.2968 418.366 80.6385C417.932 80.9802 417.412 81.2364 416.891 81.4927C416.371 81.749 415.764 81.9198 415.243 82.0906C414.723 82.4323 414.029 82.5178 413.248 82.5178Z" fill="white"/>
<path d="M441.093 67.9961H435.628V66.373H448.293V67.9961H442.828V82.2616H441.006V67.9961H441.093Z" fill="white"/>
<path d="M471.193 82.4323C469.892 82.4323 468.677 82.2615 467.637 81.8344C466.596 81.4073 465.555 80.8093 464.6 79.8697L465.728 78.5883C466.596 79.3571 467.463 79.9551 468.331 80.2968C469.198 80.6385 470.152 80.8947 471.28 80.8947C472.407 80.8947 473.275 80.6385 473.882 80.1259C474.576 79.6134 474.836 78.93 474.836 78.1612V78.0758C474.836 77.7341 474.75 77.3924 474.663 77.0507C474.576 76.7945 474.316 76.4528 474.056 76.2819C473.709 76.0257 473.275 75.8548 472.754 75.5985C472.234 75.4277 471.54 75.1714 470.673 75.0006C469.718 74.8297 468.938 74.5735 468.244 74.3172C467.55 74.0609 467.029 73.7193 466.509 73.3776C466.075 73.0359 465.728 72.6088 465.555 72.0962C465.381 71.5837 465.208 71.0712 465.208 70.3878V70.3024C465.208 69.7044 465.381 69.1064 465.641 68.5939C465.902 68.0814 466.249 67.5688 466.769 67.2271C467.29 66.8 467.81 66.5438 468.417 66.2875C469.024 66.0312 469.805 65.9458 470.586 65.9458C471.8 65.9458 472.841 66.1167 473.709 66.4583C474.576 66.8 475.444 67.3126 476.311 67.9105L475.27 69.2773C474.489 68.6793 473.795 68.2522 473.015 67.9959C472.234 67.7397 471.453 67.5688 470.586 67.5688C469.545 67.5688 468.677 67.8251 468.07 68.3376C467.463 68.8502 467.116 69.4481 467.116 70.1315V70.2169C467.116 70.5586 467.203 70.9003 467.29 71.242C467.376 71.4983 467.637 71.84 467.984 72.0962C468.331 72.3525 468.764 72.6088 469.285 72.7796C469.892 72.9504 470.586 73.2067 471.453 73.3776C473.275 73.8047 474.576 74.3172 475.444 75.0006C476.311 75.684 476.745 76.6236 476.745 77.9049V77.9904C476.745 78.6738 476.571 79.2717 476.311 79.8697C476.051 80.3822 475.704 80.8947 475.183 81.3218C474.663 81.749 474.142 82.0052 473.448 82.2615C472.754 82.3469 471.974 82.4323 471.193 82.4323Z" fill="white"/>
<path d="M479 56.7202H0V57.9161H479V56.7202Z" fill="white"/>
<path d="M479 90.8896H0V92.0855H479V90.8896Z" fill="white"/>
<path d="M1.82153 0.598145H31.9217V4.78385H6.50571V18.8786H29.2326V23.0643H6.50571V37.5007H32.1819V41.6864H1.82153V0.598145Z" fill="white"/>
<path d="M38.0804 0.598145H43.2851L58.1183 35.8776L73.0382 0.598145H78.0694L60.2001 41.8572H56.0364L38.0804 0.598145Z" fill="white"/>
<path d="M101.751 0.256836H106.175L125.171 41.6013H120.14L115.196 30.7527H92.5557L87.6113 41.6013H82.7537L101.751 0.256836ZM113.288 26.567L103.832 5.72387L94.2906 26.6524H113.288V26.567Z" fill="white"/>
<path d="M133.325 0.598145H137.749L163.946 33.4858V0.598145H168.543V41.6009H164.813L137.923 7.94448V41.6009H133.325V0.598145Z" fill="white"/>
<path d="M194.653 42.1992C191.357 42.1992 188.234 41.6867 185.545 40.5762C182.769 39.4657 180.167 37.8427 177.651 35.6217L180.601 32.2048C182.769 34.1695 185.025 35.6217 187.193 36.5614C189.449 37.501 191.964 38.0135 194.827 38.0135C197.603 38.0135 199.858 37.3302 201.593 36.0488C203.241 34.7675 204.108 33.059 204.108 31.0089V30.9235C204.108 29.9838 203.935 29.1296 203.588 28.3608C203.241 27.592 202.72 26.9086 201.94 26.3107C201.159 25.7127 200.031 25.1147 198.644 24.6022C197.256 24.0897 195.434 23.5771 193.265 23.15C190.923 22.6375 188.841 22.0395 187.02 21.3562C185.285 20.6728 183.81 19.904 182.596 18.9643C181.468 18.0247 180.601 16.9142 179.994 15.7183C179.473 14.4369 179.126 12.9848 179.126 11.3617V11.2763C179.126 9.65328 179.473 8.2011 180.167 6.83434C180.861 5.46758 181.815 4.27167 183.03 3.33202C184.244 2.30695 185.719 1.53815 187.367 1.02561C189.015 0.427654 190.837 0.171387 192.832 0.171387C195.868 0.171387 198.557 0.598499 200.812 1.45272C203.067 2.30695 205.323 3.58829 207.405 5.21131L204.629 8.79906C202.72 7.26145 200.725 6.06554 198.73 5.38216C196.735 4.69878 194.74 4.35709 192.571 4.35709C189.796 4.35709 187.714 4.95505 186.066 6.23638C184.504 7.51772 183.724 9.05532 183.724 10.9346V11.02C183.724 11.9597 183.897 12.8993 184.157 13.6681C184.504 14.4369 185.025 15.1203 185.892 15.8037C186.76 16.4871 187.887 16.9996 189.362 17.5976C190.837 18.1101 192.745 18.6226 195 19.1352C199.684 20.1602 203.067 21.527 205.236 23.3209C207.405 25.1147 208.532 27.592 208.532 30.6672V30.7526C208.532 32.5465 208.185 34.0841 207.491 35.5363C206.797 36.9885 205.843 38.1844 204.542 39.2095C203.328 40.2345 201.853 41.0033 200.031 41.5159C198.644 41.943 196.735 42.1992 194.653 42.1992Z" fill="white"/>
<path d="M229.871 8.88413H217.207V0.598145H251.731V8.88413H239.066V41.6009H229.871V8.88413Z" fill="white"/>
<path d="M258.757 0.598145H290.072V8.62786H267.778V16.9138H287.383V24.9436H267.778V33.5712H290.419V41.6009H258.757V0.598145V0.598145Z" fill="white"/>
<path d="M298.659 0.598145H314.88C318.09 0.598145 321.126 1.11068 323.815 2.13575C326.504 3.16082 328.846 4.613 330.841 6.40687C332.836 8.20075 334.311 10.4217 335.352 12.899C336.393 15.3762 337 18.0243 337 20.9287V21.0141C337 23.9185 336.48 26.5666 335.352 29.1293C334.224 31.6919 332.75 33.8275 330.841 35.6214C328.846 37.4152 326.504 38.8674 323.815 39.9779C321.126 41.003 318.09 41.6009 314.88 41.6009H298.659V0.598145ZM314.88 33.4858C316.702 33.4858 318.437 33.2295 319.998 32.6316C321.56 32.0336 322.861 31.1794 323.989 30.1543C325.116 29.0438 325.897 27.7625 326.504 26.3103C327.111 24.8581 327.458 23.1497 327.458 21.3558V21.2704C327.458 19.4765 327.111 17.8535 326.504 16.3159C325.897 14.7783 325.029 13.4969 323.989 12.3864C322.861 11.276 321.56 10.4217 319.998 9.82377C318.437 9.22582 316.789 8.88413 314.88 8.88413H307.767V33.5712H314.88V33.4858Z" fill="white"/>
<path d="M345.154 0.598145H354.349V16.8284H371.264V0.598145H380.459V41.6009H371.264V25.1144H354.349V41.6009H345.154V0.598145Z" fill="white"/>
<path d="M404.66 0.256348H413.075L430.944 41.6008H421.402L417.585 32.3752H399.976L396.159 41.6008H386.791L404.66 0.256348ZM414.289 24.4309L408.737 11.105L403.186 24.4309H414.289Z" fill="white"/>
<path d="M437.363 0.598145H447.252L458.181 17.9389L469.111 0.598145H479V41.6009H469.979V14.8637L458.268 32.3753H458.008L446.384 15.0345V41.6009H437.363V0.598145V0.598145Z" fill="white"/>
</g>
<defs>
<clipPath id="clip0">
<rect width="479" height="92" fill="white"/>
</clipPath>
</defs>
</svg>
